<?xml version="1.0" encoding="utf-8"?>
<!-- Generator: Adobe Illustrator 16.0.0, SVG Export Plug-In . SVG Version: 6.00 Build 0)  -->
<!DOCTYPE svg PUBLIC "-//W3C//DTD SVG 1.1//EN" "http://www.w3.org/Graphics/SVG/1.1/DTD/svg11.dtd">
<svg version="1.1" id="Capa_1" xmlns="http://www.w3.org/2000/svg" xmlns:xlink="http://www.w3.org/1999/xlink" x="0px" y="0px"
	 width="216px" height="146px" viewBox="0 0 216 146" enable-background="new 0 0 216 146" xml:space="preserve">
<path d="M216,73.993c0-1.083-0.758-2.02-2.273-2.81c0,0-64.703-33.921-66.617-33.127c-2.079,0.862-7.652,19.962-7.652,19.962h-26.79
	c-7.815,0-14.812-0.124-20.992-0.373c-6.179-0.249-12.318-0.696-18.417-1.341c-6.1-0.645-11.588-1.081-16.094-2.206
	c-4.505-1.123-7.786-2.067-12.746-3.789c-4.961-1.722-7.648-3.261-10.863-5.144c-3.215-1.883-7.602-4.984-11.391-9.325
	c-3.652-4.96-4.405-10.914-3.032-14.882c3.101-8.957,6.707-8.497,8.321-10.228c-2.625-0.474-10.694,3.038-17.69,11.744
	c-6.201,7.717-8.084,14.667-8.084,21.571c0,8.278,2.112,15.203,6.337,20.776c12.918,16.761,47.8,25.143,104.652,25.143h26.79
	c0,0,5.581,19.965,7.654,19.965c1.769,0,66.617-33.129,66.617-33.129C215.242,76.012,216,75.074,216,73.993z"/>
</svg>
