<?xml version="1.0" encoding="utf-8"?>
<!-- Generator: Adobe Illustrator 16.0.0, SVG Export Plug-In . SVG Version: 6.00 Build 0)  -->
<!DOCTYPE svg PUBLIC "-//W3C//DTD SVG 1.1//EN" "http://www.w3.org/Graphics/SVG/1.1/DTD/svg11.dtd">
<svg version="1.1" id="Layer_1" xmlns="http://www.w3.org/2000/svg" xmlns:xlink="http://www.w3.org/1999/xlink" x="0px" y="0px"
	 width="48px" height="48px" viewBox="0 0 48 48" enable-background="new 0 0 48 48" xml:space="preserve">
<path d="M39,12h-0.54c0.699,1.983,1.923,6.297,2.444,6.732L24,30L7.098,18.732C7.62,18.297,8.835,13.983,9.537,12H9
	c-2.135,0-9,3.5-9,3.5s0,2.665,0,5.5v18c0,2.238,0,5.25,0,9c4.125,0,6.267,0,9,0h30c2.484,0,9,0,9,0s0-6.514,0-9V21
	c0-2.188,0-3.5,0-7C44.25,13.5,41.781,12,39,12z M42,36l-9-3l8.121,8.121C40.578,41.664,39.828,42,39,42H9
	c-0.828,0-1.578-0.336-2.121-0.879L15,33l-9,3V24l18,12l18-12V36z"/>
<path d="M34.449,9.252c-0.398-0.656-12.509-3.208-13.228-2.23c4.396,3.554,1.411,5.892,1.411,5.892l-7.692,4.67
	c-0.021-0.035-1.072,1.499-1.008,4.122c2.427,1.26,4.09,0.968,4.121,1.008l7.693-4.672c0,0,3.275-2.3,4.58,3.977
	C31.524,21.832,34.848,9.909,34.449,9.252z"/>
</svg>
