<?xml version="1.0" encoding="utf-8"?>
<!-- Generator: Adobe Illustrator 16.0.0, SVG Export Plug-In . SVG Version: 6.00 Build 0)  -->
<!DOCTYPE svg PUBLIC "-//W3C//DTD SVG 1.1//EN" "http://www.w3.org/Graphics/SVG/1.1/DTD/svg11.dtd">
<svg version="1.1" id="Capa_1" xmlns="http://www.w3.org/2000/svg" xmlns:xlink="http://www.w3.org/1999/xlink" x="0px" y="0px"
	 width="64px" height="64px" viewBox="0 0 64 64" enable-background="new 0 0 64 64" xml:space="preserve">
<path d="M48.649,47.181l-5.87-5.871c0.013,0.003-1.978-1.789-2.623-2.747c0.406-1,1.636-3.604,1.634-3.624
	c0.699-1.863,1.066-3.856,1.066-5.907c0-4.497-1.751-8.724-4.931-11.903c-3.181-3.18-7.407-4.931-11.902-4.931
	c-4.497,0-8.724,1.751-11.903,4.931c-3.18,3.179-4.931,7.406-4.931,11.903s1.751,8.724,4.931,11.903
	c3.18,3.179,7.406,4.93,11.903,4.93c2.166,0,4.267-0.412,6.218-1.193c-0.085,0.006,2.728-1.015,3.978-2.108
	c1.438,1.656,2.595,2.955,2.573,2.896l5.616,5.964c6.248,0.849,4.936,0.661,4.949,0.707C49.406,52.146,49.531,53.271,48.649,47.181z
	 M26.022,39.865c-2.895,0-5.615-1.126-7.661-3.173c-2.046-2.045-3.173-4.767-3.173-7.66c0-2.894,1.127-5.614,3.173-7.661
	c2.047-2.046,4.767-3.173,7.661-3.173c2.894,0,5.613,1.127,7.659,3.173c2.047,2.046,3.174,4.767,3.174,7.661
	c0,2.894-1.127,5.613-3.174,7.66C31.636,38.739,28.916,39.865,26.022,39.865z"/>
<rect x="19.76" y="28.198" transform="matrix(0.7071 0.7071 -0.7071 0.7071 28.1387 -10.0174)" width="12.804" height="1.521"/>
<rect x="19.634" y="28.578" transform="matrix(-0.7071 0.7071 -0.7071 -0.7071 65.1902 31.6741)" width="12.803" height="1.521"/>
</svg>
